<mxfile host="app.diagrams.net" agent="Mozilla/5.0 (Windows NT 10.0; Win64; x64) AppleWebKit/537.36 (KHTML, like Gecko) Chrome/133.0.0.0 Safari/537.36" version="26.0.16">
  <diagram id="NwvOywu8shKPwYKtUqR9" name="Page-3">
    <mxGraphModel dx="1312" dy="-432" grid="1" gridSize="10" guides="1" tooltips="1" connect="1" arrows="1" fold="1" page="1" pageScale="1" pageWidth="827" pageHeight="1169" math="0" shadow="0">
      <root>
        <mxCell id="0" />
        <mxCell id="1" parent="0" />
        <mxCell id="7Acz6xuh9H0JCwp66rz2-2" value="Library" style="swimlane;fontStyle=1;align=center;verticalAlign=top;childLayout=stackLayout;horizontal=1;startSize=26;horizontalStack=0;resizeParent=1;resizeParentMax=0;resizeLast=0;collapsible=1;marginBottom=0;whiteSpace=wrap;html=1;" parent="1" vertex="1">
          <mxGeometry y="1249" width="260" height="130" as="geometry" />
        </mxCell>
        <mxCell id="7Acz6xuh9H0JCwp66rz2-3" value="" style="line;strokeWidth=1;fillColor=none;align=left;verticalAlign=middle;spacingTop=-1;spacingLeft=3;spacingRight=3;rotatable=0;labelPosition=right;points=[];portConstraint=eastwest;strokeColor=inherit;" parent="7Acz6xuh9H0JCwp66rz2-2" vertex="1">
          <mxGeometry y="26" width="260" height="8" as="geometry" />
        </mxCell>
        <mxCell id="7Acz6xuh9H0JCwp66rz2-4" value="+ addBook(Book b): void&lt;div&gt;+ loanBook(String bookName,&amp;nbsp;&lt;/div&gt;&lt;div&gt;&lt;span style=&quot;white-space: pre;&quot;&gt;&#x9;&lt;/span&gt;&lt;span style=&quot;white-space: pre;&quot;&gt;&#x9;&lt;/span&gt;&amp;nbsp; Customer customer&lt;/div&gt;&lt;div&gt;&lt;span style=&quot;white-space: pre;&quot;&gt;&#x9;&lt;/span&gt;&lt;span style=&quot;white-space: pre;&quot;&gt;&#x9;&lt;/span&gt;&amp;nbsp; ): boolean&amp;nbsp;&amp;nbsp;&lt;/div&gt;&lt;div&gt;+returnBook(String copyID, String bookName, Customer customer):&amp;nbsp; boolean&lt;/div&gt;" style="text;strokeColor=none;fillColor=none;align=left;verticalAlign=top;spacingLeft=4;spacingRight=4;overflow=hidden;rotatable=0;points=[[0,0.5],[1,0.5]];portConstraint=eastwest;whiteSpace=wrap;html=1;" parent="7Acz6xuh9H0JCwp66rz2-2" vertex="1">
          <mxGeometry y="34" width="260" height="96" as="geometry" />
        </mxCell>
        <mxCell id="7Acz6xuh9H0JCwp66rz2-5" value="Book" style="swimlane;fontStyle=1;align=center;verticalAlign=top;childLayout=stackLayout;horizontal=1;startSize=26;horizontalStack=0;resizeParent=1;resizeParentMax=0;resizeLast=0;collapsible=1;marginBottom=0;whiteSpace=wrap;html=1;" parent="1" vertex="1">
          <mxGeometry x="410" y="1169" width="260" height="220" as="geometry" />
        </mxCell>
        <mxCell id="7Acz6xuh9H0JCwp66rz2-6" value="+ title: String&lt;div&gt;+ author: String&lt;/div&gt;&lt;div&gt;+ noOfCopies: Integer&lt;/div&gt;&lt;div&gt;&lt;br&gt;&lt;/div&gt;" style="text;strokeColor=none;fillColor=none;align=left;verticalAlign=top;spacingLeft=4;spacingRight=4;overflow=hidden;rotatable=0;points=[[0,0.5],[1,0.5]];portConstraint=eastwest;whiteSpace=wrap;html=1;" parent="7Acz6xuh9H0JCwp66rz2-5" vertex="1">
          <mxGeometry y="26" width="260" height="104" as="geometry" />
        </mxCell>
        <mxCell id="7Acz6xuh9H0JCwp66rz2-7" value="" style="line;strokeWidth=1;fillColor=none;align=left;verticalAlign=middle;spacingTop=-1;spacingLeft=3;spacingRight=3;rotatable=0;labelPosition=right;points=[];portConstraint=eastwest;strokeColor=inherit;" parent="7Acz6xuh9H0JCwp66rz2-5" vertex="1">
          <mxGeometry y="130" width="260" height="8" as="geometry" />
        </mxCell>
        <mxCell id="7Acz6xuh9H0JCwp66rz2-8" value="&lt;div&gt;&lt;div&gt;- ChangeState(boolean: availableCopies): void&lt;/div&gt;&lt;/div&gt;&lt;div&gt;+ getAvailableCopy(): String&lt;/div&gt;&lt;div&gt;+ loanThisBook(): String&lt;/div&gt;&lt;div&gt;+ bookTaken(): void&lt;/div&gt;&lt;div&gt;+ bookReturned(String copyID): boolean&lt;/div&gt;" style="text;strokeColor=none;fillColor=none;align=left;verticalAlign=top;spacingLeft=4;spacingRight=4;overflow=hidden;rotatable=0;points=[[0,0.5],[1,0.5]];portConstraint=eastwest;whiteSpace=wrap;html=1;" parent="7Acz6xuh9H0JCwp66rz2-5" vertex="1">
          <mxGeometry y="138" width="260" height="82" as="geometry" />
        </mxCell>
        <mxCell id="7Acz6xuh9H0JCwp66rz2-9" style="edgeStyle=orthogonalEdgeStyle;rounded=0;orthogonalLoop=1;jettySize=auto;html=1;exitX=1;exitY=0.25;exitDx=0;exitDy=0;entryX=0;entryY=0.5;entryDx=0;entryDy=0;endArrow=none;endFill=0;startArrow=diamondThin;startFill=0;" parent="1" source="7Acz6xuh9H0JCwp66rz2-2" target="7Acz6xuh9H0JCwp66rz2-6" edge="1">
          <mxGeometry relative="1" as="geometry">
            <mxPoint x="310" y="1329" as="sourcePoint" />
            <mxPoint x="400" y="1299" as="targetPoint" />
          </mxGeometry>
        </mxCell>
        <mxCell id="7Acz6xuh9H0JCwp66rz2-10" value="0..*" style="edgeLabel;html=1;align=center;verticalAlign=middle;resizable=0;points=[];" parent="7Acz6xuh9H0JCwp66rz2-9" connectable="0" vertex="1">
          <mxGeometry x="0.6762" y="2" relative="1" as="geometry">
            <mxPoint x="4" y="-16" as="offset" />
          </mxGeometry>
        </mxCell>
        <mxCell id="7Acz6xuh9H0JCwp66rz2-11" value="1" style="text;html=1;align=center;verticalAlign=middle;resizable=0;points=[];autosize=1;strokeColor=none;fillColor=none;" parent="1" vertex="1">
          <mxGeometry x="260" y="1259" width="30" height="30" as="geometry" />
        </mxCell>
        <mxCell id="7Acz6xuh9H0JCwp66rz2-12" value="Copy" style="swimlane;fontStyle=1;align=center;verticalAlign=top;childLayout=stackLayout;horizontal=1;startSize=26;horizontalStack=0;resizeParent=1;resizeParentMax=0;resizeLast=0;collapsible=1;marginBottom=0;whiteSpace=wrap;html=1;" parent="1" vertex="1">
          <mxGeometry x="797" y="1201" width="160" height="118" as="geometry" />
        </mxCell>
        <mxCell id="7Acz6xuh9H0JCwp66rz2-13" value="+ copyID : String&lt;div&gt;+ available : Boolean&lt;/div&gt;&lt;div&gt;+ book: Book&lt;/div&gt;" style="text;strokeColor=none;fillColor=none;align=left;verticalAlign=top;spacingLeft=4;spacingRight=4;overflow=hidden;rotatable=0;points=[[0,0.5],[1,0.5]];portConstraint=eastwest;whiteSpace=wrap;html=1;" parent="7Acz6xuh9H0JCwp66rz2-12" vertex="1">
          <mxGeometry y="26" width="160" height="44" as="geometry" />
        </mxCell>
        <mxCell id="7Acz6xuh9H0JCwp66rz2-14" value="" style="line;strokeWidth=1;fillColor=none;align=left;verticalAlign=middle;spacingTop=-1;spacingLeft=3;spacingRight=3;rotatable=0;labelPosition=right;points=[];portConstraint=eastwest;strokeColor=inherit;" parent="7Acz6xuh9H0JCwp66rz2-12" vertex="1">
          <mxGeometry y="70" width="160" height="8" as="geometry" />
        </mxCell>
        <mxCell id="7Acz6xuh9H0JCwp66rz2-15" value="&lt;div&gt;&lt;div&gt;+ setAvailable(): Void&lt;/div&gt;&lt;/div&gt;&lt;div&gt;+ setUnavailable(): Void&lt;/div&gt;" style="text;strokeColor=none;fillColor=none;align=left;verticalAlign=top;spacingLeft=4;spacingRight=4;overflow=hidden;rotatable=0;points=[[0,0.5],[1,0.5]];portConstraint=eastwest;whiteSpace=wrap;html=1;" parent="7Acz6xuh9H0JCwp66rz2-12" vertex="1">
          <mxGeometry y="78" width="160" height="40" as="geometry" />
        </mxCell>
        <mxCell id="7Acz6xuh9H0JCwp66rz2-16" value="Has" style="text;html=1;align=center;verticalAlign=middle;resizable=0;points=[];autosize=1;strokeColor=none;fillColor=none;" parent="1" vertex="1">
          <mxGeometry x="710" y="1219" width="40" height="30" as="geometry" />
        </mxCell>
        <mxCell id="7Acz6xuh9H0JCwp66rz2-17" style="edgeStyle=orthogonalEdgeStyle;rounded=0;orthogonalLoop=1;jettySize=auto;html=1;dashed=1;endArrow=open;endFill=0;" parent="1" source="7Acz6xuh9H0JCwp66rz2-18" edge="1">
          <mxGeometry relative="1" as="geometry">
            <mxPoint x="950" y="1326" as="targetPoint" />
          </mxGeometry>
        </mxCell>
        <mxCell id="7Acz6xuh9H0JCwp66rz2-18" value="&amp;lt;&amp;lt;Interface&amp;gt;&amp;gt;&lt;div&gt;LoanState&lt;/div&gt;&lt;div&gt;&lt;br&gt;&lt;/div&gt;&lt;div&gt;&lt;br&gt;&lt;/div&gt;&lt;div&gt;&lt;br&gt;&lt;/div&gt;" style="swimlane;fontStyle=1;align=center;verticalAlign=top;childLayout=stackLayout;horizontal=1;startSize=40;horizontalStack=0;resizeParent=1;resizeParentMax=0;resizeLast=0;collapsible=1;marginBottom=0;whiteSpace=wrap;html=1;" parent="1" vertex="1">
          <mxGeometry x="740" y="1409" width="150" height="90" as="geometry">
            <mxRectangle x="320" y="160" width="120" height="40" as="alternateBounds" />
          </mxGeometry>
        </mxCell>
        <mxCell id="7Acz6xuh9H0JCwp66rz2-19" value="" style="line;strokeWidth=1;fillColor=none;align=left;verticalAlign=middle;spacingTop=-1;spacingLeft=3;spacingRight=3;rotatable=0;labelPosition=right;points=[];portConstraint=eastwest;strokeColor=inherit;" parent="7Acz6xuh9H0JCwp66rz2-18" vertex="1">
          <mxGeometry y="40" width="150" height="8" as="geometry" />
        </mxCell>
        <mxCell id="7Acz6xuh9H0JCwp66rz2-20" value="+ loan(Book book&lt;span style=&quot;background-color: transparent; color: light-dark(rgb(0, 0, 0), rgb(255, 255, 255));&quot;&gt;):&lt;/span&gt;&lt;span style=&quot;background-color: transparent; color: light-dark(rgb(0, 0, 0), rgb(255, 255, 255));&quot;&gt;String&lt;/span&gt;" style="text;strokeColor=none;fillColor=none;align=left;verticalAlign=top;spacingLeft=4;spacingRight=4;overflow=hidden;rotatable=0;points=[[0,0.5],[1,0.5]];portConstraint=eastwest;whiteSpace=wrap;html=1;" parent="7Acz6xuh9H0JCwp66rz2-18" vertex="1">
          <mxGeometry y="48" width="150" height="42" as="geometry" />
        </mxCell>
        <mxCell id="7Acz6xuh9H0JCwp66rz2-21" style="edgeStyle=orthogonalEdgeStyle;rounded=0;orthogonalLoop=1;jettySize=auto;html=1;exitX=0.5;exitY=0;exitDx=0;exitDy=0;entryX=0.5;entryY=1;entryDx=0;entryDy=0;endArrow=block;endFill=0;dashed=1;dashPattern=12 12;" parent="1" source="7Acz6xuh9H0JCwp66rz2-22" target="7Acz6xuh9H0JCwp66rz2-18" edge="1">
          <mxGeometry relative="1" as="geometry" />
        </mxCell>
        <mxCell id="7Acz6xuh9H0JCwp66rz2-22" value="CopiesAvailable" style="swimlane;fontStyle=1;align=center;verticalAlign=top;childLayout=stackLayout;horizontal=1;startSize=26;horizontalStack=0;resizeParent=1;resizeParentMax=0;resizeLast=0;collapsible=1;marginBottom=0;whiteSpace=wrap;html=1;" parent="1" vertex="1">
          <mxGeometry x="680" y="1609" width="160" height="60" as="geometry" />
        </mxCell>
        <mxCell id="7Acz6xuh9H0JCwp66rz2-23" value="" style="line;strokeWidth=1;fillColor=none;align=left;verticalAlign=middle;spacingTop=-1;spacingLeft=3;spacingRight=3;rotatable=0;labelPosition=right;points=[];portConstraint=eastwest;strokeColor=inherit;" parent="7Acz6xuh9H0JCwp66rz2-22" vertex="1">
          <mxGeometry y="26" width="160" height="8" as="geometry" />
        </mxCell>
        <mxCell id="7Acz6xuh9H0JCwp66rz2-24" value="+ loan(Book book&lt;span style=&quot;color: light-dark(rgb(0, 0, 0), rgb(255, 255, 255)); background-color: transparent;&quot;&gt;)&amp;nbsp;&lt;span style=&quot;white-space: pre;&quot;&gt;&#x9;&lt;/span&gt;&amp;nbsp;:&lt;/span&gt;&lt;span style=&quot;color: light-dark(rgb(0, 0, 0), rgb(255, 255, 255)); background-color: transparent;&quot;&gt;String&lt;/span&gt;" style="text;strokeColor=none;fillColor=none;align=left;verticalAlign=top;spacingLeft=4;spacingRight=4;overflow=hidden;rotatable=0;points=[[0,0.5],[1,0.5]];portConstraint=eastwest;whiteSpace=wrap;html=1;" parent="7Acz6xuh9H0JCwp66rz2-22" vertex="1">
          <mxGeometry y="34" width="160" height="26" as="geometry" />
        </mxCell>
        <mxCell id="7Acz6xuh9H0JCwp66rz2-25" style="edgeStyle=orthogonalEdgeStyle;rounded=0;orthogonalLoop=1;jettySize=auto;html=1;entryX=0.5;entryY=1;entryDx=0;entryDy=0;endArrow=block;endFill=0;dashed=1;dashPattern=12 12;" parent="1" source="7Acz6xuh9H0JCwp66rz2-26" target="7Acz6xuh9H0JCwp66rz2-18" edge="1">
          <mxGeometry relative="1" as="geometry" />
        </mxCell>
        <mxCell id="7Acz6xuh9H0JCwp66rz2-26" value="NoCopiesAvailable" style="swimlane;fontStyle=1;align=center;verticalAlign=top;childLayout=stackLayout;horizontal=1;startSize=26;horizontalStack=0;resizeParent=1;resizeParentMax=0;resizeLast=0;collapsible=1;marginBottom=0;whiteSpace=wrap;html=1;" parent="1" vertex="1">
          <mxGeometry x="850" y="1609.3000000000002" width="150" height="60" as="geometry" />
        </mxCell>
        <mxCell id="7Acz6xuh9H0JCwp66rz2-27" value="" style="line;strokeWidth=1;fillColor=none;align=left;verticalAlign=middle;spacingTop=-1;spacingLeft=3;spacingRight=3;rotatable=0;labelPosition=right;points=[];portConstraint=eastwest;strokeColor=inherit;" parent="7Acz6xuh9H0JCwp66rz2-26" vertex="1">
          <mxGeometry y="26" width="150" height="8" as="geometry" />
        </mxCell>
        <mxCell id="7Acz6xuh9H0JCwp66rz2-28" value="+ loan(Book book&lt;span style=&quot;color: light-dark(rgb(0, 0, 0), rgb(255, 255, 255)); background-color: transparent;&quot;&gt;):&lt;/span&gt;&lt;span style=&quot;color: light-dark(rgb(0, 0, 0), rgb(255, 255, 255)); background-color: transparent;&quot;&gt;String&lt;/span&gt;" style="text;strokeColor=none;fillColor=none;align=left;verticalAlign=top;spacingLeft=4;spacingRight=4;overflow=hidden;rotatable=0;points=[[0,0.5],[1,0.5]];portConstraint=eastwest;whiteSpace=wrap;html=1;" parent="7Acz6xuh9H0JCwp66rz2-26" vertex="1">
          <mxGeometry y="34" width="150" height="26" as="geometry" />
        </mxCell>
        <mxCell id="7Acz6xuh9H0JCwp66rz2-29" value="SchoolLibrary" style="swimlane;fontStyle=1;align=center;verticalAlign=top;childLayout=stackLayout;horizontal=1;startSize=26;horizontalStack=0;resizeParent=1;resizeParentMax=0;resizeLast=0;collapsible=1;marginBottom=0;whiteSpace=wrap;html=1;" parent="1" vertex="1">
          <mxGeometry x="223" y="1689" width="187" height="144" as="geometry" />
        </mxCell>
        <mxCell id="7Acz6xuh9H0JCwp66rz2-30" value="+ location: string" style="text;strokeColor=none;fillColor=none;align=left;verticalAlign=top;spacingLeft=4;spacingRight=4;overflow=hidden;rotatable=0;points=[[0,0.5],[1,0.5]];portConstraint=eastwest;whiteSpace=wrap;html=1;" parent="7Acz6xuh9H0JCwp66rz2-29" vertex="1">
          <mxGeometry y="26" width="187" height="24" as="geometry" />
        </mxCell>
        <mxCell id="7Acz6xuh9H0JCwp66rz2-31" value="" style="line;strokeWidth=1;fillColor=none;align=left;verticalAlign=middle;spacingTop=-1;spacingLeft=3;spacingRight=3;rotatable=0;labelPosition=right;points=[];portConstraint=eastwest;strokeColor=inherit;" parent="7Acz6xuh9H0JCwp66rz2-29" vertex="1">
          <mxGeometry y="50" width="187" height="24" as="geometry" />
        </mxCell>
        <mxCell id="7Acz6xuh9H0JCwp66rz2-32" value="&lt;br&gt;&lt;div&gt;+ takeBook(String copyID): bool&lt;div&gt;+ returnBook(String copyID): bool&lt;/div&gt;&lt;/div&gt;" style="text;strokeColor=none;fillColor=none;align=left;verticalAlign=top;spacingLeft=4;spacingRight=4;overflow=hidden;rotatable=0;points=[[0,0.5],[1,0.5]];portConstraint=eastwest;whiteSpace=wrap;html=1;" parent="7Acz6xuh9H0JCwp66rz2-29" vertex="1">
          <mxGeometry y="74" width="187" height="70" as="geometry" />
        </mxCell>
        <mxCell id="7Acz6xuh9H0JCwp66rz2-33" value="PrivateCustomer" style="swimlane;fontStyle=1;align=center;verticalAlign=top;childLayout=stackLayout;horizontal=1;startSize=26;horizontalStack=0;resizeParent=1;resizeParentMax=0;resizeLast=0;collapsible=1;marginBottom=0;whiteSpace=wrap;html=1;" parent="1" vertex="1">
          <mxGeometry x="20" y="1689" width="190" height="96" as="geometry" />
        </mxCell>
        <mxCell id="7Acz6xuh9H0JCwp66rz2-34" value="" style="line;strokeWidth=1;fillColor=none;align=left;verticalAlign=middle;spacingTop=-1;spacingLeft=3;spacingRight=3;rotatable=0;labelPosition=right;points=[];portConstraint=eastwest;strokeColor=inherit;" parent="7Acz6xuh9H0JCwp66rz2-33" vertex="1">
          <mxGeometry y="26" width="190" height="8" as="geometry" />
        </mxCell>
        <mxCell id="7Acz6xuh9H0JCwp66rz2-35" value="&lt;br&gt;&lt;div&gt;+ takeBook(String copyID): bool&lt;div&gt;+ returnBook(String copyID): bool&lt;/div&gt;&lt;/div&gt;" style="text;strokeColor=none;fillColor=none;align=left;verticalAlign=top;spacingLeft=4;spacingRight=4;overflow=hidden;rotatable=0;points=[[0,0.5],[1,0.5]];portConstraint=eastwest;whiteSpace=wrap;html=1;" parent="7Acz6xuh9H0JCwp66rz2-33" vertex="1">
          <mxGeometry y="34" width="190" height="62" as="geometry" />
        </mxCell>
        <mxCell id="7Acz6xuh9H0JCwp66rz2-36" style="edgeStyle=orthogonalEdgeStyle;rounded=0;orthogonalLoop=1;jettySize=auto;html=1;exitX=0.5;exitY=0;exitDx=0;exitDy=0;endArrow=diamond;endFill=1;entryX=1;entryY=0.5;entryDx=0;entryDy=0;" parent="1" source="7Acz6xuh9H0JCwp66rz2-18" target="7Acz6xuh9H0JCwp66rz2-8" edge="1">
          <mxGeometry relative="1" as="geometry">
            <Array as="points">
              <mxPoint x="795" y="1383" />
              <mxPoint x="690" y="1383" />
              <mxPoint x="690" y="1343" />
            </Array>
            <mxPoint x="960" y="1359" as="targetPoint" />
          </mxGeometry>
        </mxCell>
        <mxCell id="7Acz6xuh9H0JCwp66rz2-37" value="Holds" style="text;html=1;align=center;verticalAlign=middle;resizable=0;points=[];autosize=1;strokeColor=none;fillColor=none;" parent="1" vertex="1">
          <mxGeometry x="290" y="1259" width="50" height="30" as="geometry" />
        </mxCell>
        <mxCell id="7Acz6xuh9H0JCwp66rz2-38" style="edgeStyle=orthogonalEdgeStyle;rounded=0;orthogonalLoop=1;jettySize=auto;html=1;entryX=0;entryY=0.5;entryDx=0;entryDy=0;endArrow=none;startFill=0;startArrow=diamondThin;endFill=0;" parent="1" source="7Acz6xuh9H0JCwp66rz2-6" target="7Acz6xuh9H0JCwp66rz2-13" edge="1">
          <mxGeometry relative="1" as="geometry" />
        </mxCell>
        <mxCell id="7Acz6xuh9H0JCwp66rz2-39" value="1" style="edgeLabel;html=1;align=center;verticalAlign=middle;resizable=0;points=[];" parent="7Acz6xuh9H0JCwp66rz2-38" connectable="0" vertex="1">
          <mxGeometry x="-0.7041" y="2" relative="1" as="geometry">
            <mxPoint x="-6" y="-12" as="offset" />
          </mxGeometry>
        </mxCell>
        <mxCell id="7Acz6xuh9H0JCwp66rz2-40" value="0 .. *" style="text;html=1;align=center;verticalAlign=middle;resizable=0;points=[];autosize=1;strokeColor=none;fillColor=none;" parent="1" vertex="1">
          <mxGeometry x="755" y="1229" width="50" height="30" as="geometry" />
        </mxCell>
        <mxCell id="7Acz6xuh9H0JCwp66rz2-41" value="1" style="text;html=1;align=center;verticalAlign=middle;resizable=0;points=[];autosize=1;strokeColor=none;fillColor=none;" parent="1" vertex="1">
          <mxGeometry x="670" y="1319" width="30" height="30" as="geometry" />
        </mxCell>
        <mxCell id="7Acz6xuh9H0JCwp66rz2-42" value="2 .. *" style="text;html=1;align=center;verticalAlign=middle;resizable=0;points=[];autosize=1;strokeColor=none;fillColor=none;" parent="1" vertex="1">
          <mxGeometry x="770" y="1389" width="50" height="30" as="geometry" />
        </mxCell>
        <mxCell id="7Acz6xuh9H0JCwp66rz2-43" value="Customer" style="swimlane;fontStyle=1;align=center;verticalAlign=top;childLayout=stackLayout;horizontal=1;startSize=26;horizontalStack=0;resizeParent=1;resizeParentMax=0;resizeLast=0;collapsible=1;marginBottom=0;whiteSpace=wrap;html=1;" parent="1" vertex="1">
          <mxGeometry x="120" y="1499" width="210" height="130" as="geometry" />
        </mxCell>
        <mxCell id="7Acz6xuh9H0JCwp66rz2-44" value="+ name: String&lt;div&gt;+ ID: String&lt;/div&gt;&lt;div&gt;+ loaned: ArrayList&amp;lt;String&amp;gt;&lt;/div&gt;" style="text;strokeColor=none;fillColor=none;align=left;verticalAlign=top;spacingLeft=4;spacingRight=4;overflow=hidden;rotatable=0;points=[[0,0.5],[1,0.5]];portConstraint=eastwest;whiteSpace=wrap;html=1;" parent="7Acz6xuh9H0JCwp66rz2-43" vertex="1">
          <mxGeometry y="26" width="210" height="54" as="geometry" />
        </mxCell>
        <mxCell id="7Acz6xuh9H0JCwp66rz2-45" value="" style="line;strokeWidth=1;fillColor=none;align=left;verticalAlign=middle;spacingTop=-1;spacingLeft=3;spacingRight=3;rotatable=0;labelPosition=right;points=[];portConstraint=eastwest;strokeColor=inherit;" parent="7Acz6xuh9H0JCwp66rz2-43" vertex="1">
          <mxGeometry y="80" width="210" height="8" as="geometry" />
        </mxCell>
        <mxCell id="7Acz6xuh9H0JCwp66rz2-46" value="+ takeBook(String copyID): bool&lt;div&gt;+ returnBook(String copyID): bool&lt;/div&gt;" style="text;strokeColor=none;fillColor=none;align=left;verticalAlign=top;spacingLeft=4;spacingRight=4;overflow=hidden;rotatable=0;points=[[0,0.5],[1,0.5]];portConstraint=eastwest;whiteSpace=wrap;html=1;" parent="7Acz6xuh9H0JCwp66rz2-43" vertex="1">
          <mxGeometry y="88" width="210" height="42" as="geometry" />
        </mxCell>
        <mxCell id="7Acz6xuh9H0JCwp66rz2-47" style="edgeStyle=orthogonalEdgeStyle;rounded=0;orthogonalLoop=1;jettySize=auto;html=1;entryX=0.467;entryY=0.991;entryDx=0;entryDy=0;entryPerimeter=0;startArrow=classic;startFill=1;endArrow=none;" parent="1" source="7Acz6xuh9H0JCwp66rz2-43" target="7Acz6xuh9H0JCwp66rz2-4" edge="1">
          <mxGeometry relative="1" as="geometry" />
        </mxCell>
        <mxCell id="7Acz6xuh9H0JCwp66rz2-48" value="Has" style="text;html=1;align=center;verticalAlign=middle;resizable=0;points=[];autosize=1;strokeColor=none;fillColor=none;" parent="1" vertex="1">
          <mxGeometry x="185" y="1439" width="40" height="30" as="geometry" />
        </mxCell>
        <mxCell id="7Acz6xuh9H0JCwp66rz2-49" value="1" style="text;html=1;align=center;verticalAlign=middle;resizable=0;points=[];autosize=1;strokeColor=none;fillColor=none;" parent="1" vertex="1">
          <mxGeometry x="120" y="1379" width="30" height="30" as="geometry" />
        </mxCell>
        <mxCell id="7Acz6xuh9H0JCwp66rz2-50" value="0 .. *" style="text;html=1;align=center;verticalAlign=middle;resizable=0;points=[];autosize=1;strokeColor=none;fillColor=none;" parent="1" vertex="1">
          <mxGeometry x="185" y="1469" width="50" height="30" as="geometry" />
        </mxCell>
        <mxCell id="7Acz6xuh9H0JCwp66rz2-51" style="edgeStyle=orthogonalEdgeStyle;rounded=0;orthogonalLoop=1;jettySize=auto;html=1;entryX=0.518;entryY=1.017;entryDx=0;entryDy=0;entryPerimeter=0;endArrow=block;endFill=0;" parent="1" source="7Acz6xuh9H0JCwp66rz2-33" target="7Acz6xuh9H0JCwp66rz2-46" edge="1">
          <mxGeometry relative="1" as="geometry" />
        </mxCell>
        <mxCell id="7Acz6xuh9H0JCwp66rz2-52" style="edgeStyle=orthogonalEdgeStyle;rounded=0;orthogonalLoop=1;jettySize=auto;html=1;entryX=0.518;entryY=0.995;entryDx=0;entryDy=0;entryPerimeter=0;endArrow=block;endFill=0;" parent="1" source="7Acz6xuh9H0JCwp66rz2-29" target="7Acz6xuh9H0JCwp66rz2-46" edge="1">
          <mxGeometry relative="1" as="geometry" />
        </mxCell>
        <mxCell id="7Acz6xuh9H0JCwp66rz2-53" value="Has" style="text;html=1;align=center;verticalAlign=middle;resizable=0;points=[];autosize=1;strokeColor=none;fillColor=none;" parent="1" vertex="1">
          <mxGeometry x="690" y="1359" width="40" height="30" as="geometry" />
        </mxCell>
        <mxCell id="7Acz6xuh9H0JCwp66rz2-55" value="Alters" style="text;html=1;align=center;verticalAlign=middle;resizable=0;points=[];autosize=1;strokeColor=none;fillColor=none;" parent="1" vertex="1">
          <mxGeometry x="897" y="1446" width="50" height="30" as="geometry" />
        </mxCell>
      </root>
    </mxGraphModel>
  </diagram>
</mxfile>
